<?xml version="1.0" standalone="no"?><!DOCTYPE svg PUBLIC "-//W3C//DTD SVG 1.1//EN" "http://www.w3.org/Graphics/SVG/1.1/DTD/svg11.dtd"><svg t="1776682902998" class="icon" viewBox="0 0 1024 1024" version="1.1" xmlns="http://www.w3.org/2000/svg" p-id="2656" xmlns:xlink="http://www.w3.org/1999/xlink" width="200" height="200"><path d="M43.958 586.27866667c13.623 13.623 35.69199999 13.623 49.31499999 0L512.5 167.04066667 931.727 586.27866667c13.623 13.623 35.69199999 13.623 49.315 0s13.623-35.69199999 1e-8-49.315l-443.884-443.884c-13.623-13.623-35.69199999-13.623-49.31500001 0l-443.885 443.873c-13.623 13.633-13.623 35.703 0 49.326z" p-id="2657"></path><path d="M43.958 935.02866667c13.623 13.623 35.69199999 13.623 49.315-1e-8L512.5 515.79066667 931.727 935.02866667c13.623 13.623 35.69199999 13.623 49.315 0s13.623-35.69199999 1e-8-49.315l-443.884-443.884c-13.623-13.623-35.69199999-13.623-49.31500001 0l-443.885 443.873c-13.623 13.633-13.623 35.703 0 49.326z" p-id="2658"></path></svg>